<mxfile host="app.diagrams.net" agent="Mozilla/5.0 (Windows NT 10.0; Win64; x64) AppleWebKit/537.36 (KHTML, like Gecko) Chrome/130.0.0.0 Safari/537.36" version="24.8.3">
  <diagram name="Page-1" id="i7q7fLjkgupq8SxwGajX">
    <mxGraphModel dx="1271" dy="819" grid="1" gridSize="10" guides="1" tooltips="1" connect="1" arrows="1" fold="1" page="1" pageScale="1" pageWidth="850" pageHeight="1100" math="0" shadow="0">
      <root>
        <mxCell id="0" />
        <mxCell id="1" parent="0" />
        <mxCell id="w8WAmHKSt3YxrzcGMaqg-9" value="" style="edgeStyle=orthogonalEdgeStyle;rounded=0;orthogonalLoop=1;jettySize=auto;html=1;" edge="1" parent="1" source="w8WAmHKSt3YxrzcGMaqg-2" target="w8WAmHKSt3YxrzcGMaqg-8">
          <mxGeometry relative="1" as="geometry" />
        </mxCell>
        <mxCell id="w8WAmHKSt3YxrzcGMaqg-14" value="" style="edgeStyle=orthogonalEdgeStyle;rounded=0;orthogonalLoop=1;jettySize=auto;html=1;entryX=0;entryY=0.5;entryDx=0;entryDy=0;" edge="1" parent="1" source="w8WAmHKSt3YxrzcGMaqg-2" target="w8WAmHKSt3YxrzcGMaqg-12">
          <mxGeometry relative="1" as="geometry" />
        </mxCell>
        <mxCell id="w8WAmHKSt3YxrzcGMaqg-2" value="Validando clave" style="rounded=1;whiteSpace=wrap;html=1;" vertex="1" parent="1">
          <mxGeometry x="365" y="160" width="120" height="60" as="geometry" />
        </mxCell>
        <mxCell id="w8WAmHKSt3YxrzcGMaqg-4" value="" style="edgeStyle=orthogonalEdgeStyle;rounded=0;orthogonalLoop=1;jettySize=auto;html=1;" edge="1" parent="1" source="w8WAmHKSt3YxrzcGMaqg-3" target="w8WAmHKSt3YxrzcGMaqg-2">
          <mxGeometry relative="1" as="geometry" />
        </mxCell>
        <mxCell id="w8WAmHKSt3YxrzcGMaqg-3" value="" style="ellipse;whiteSpace=wrap;html=1;aspect=fixed;fillColor=#000000;" vertex="1" parent="1">
          <mxGeometry x="415" y="110" width="20" height="20" as="geometry" />
        </mxCell>
        <mxCell id="w8WAmHKSt3YxrzcGMaqg-5" value="Se ingresa una tarjeta en la ranura / Se habilita una pantalla en&lt;div style=&quot;font-size: 9px;&quot;&gt;espera para el ingreso de una clave desde el teclado virtual&lt;/div&gt;" style="text;html=1;align=left;verticalAlign=middle;resizable=0;points=[];autosize=1;strokeColor=none;fillColor=none;fontSize=9;" vertex="1" parent="1">
          <mxGeometry x="435" y="100" width="280" height="40" as="geometry" />
        </mxCell>
        <mxCell id="w8WAmHKSt3YxrzcGMaqg-6" value="" style="endArrow=classic;html=1;rounded=0;exitX=0;exitY=0.75;exitDx=0;exitDy=0;entryX=0;entryY=0.25;entryDx=0;entryDy=0;" edge="1" parent="1" source="w8WAmHKSt3YxrzcGMaqg-2" target="w8WAmHKSt3YxrzcGMaqg-2">
          <mxGeometry width="50" height="50" relative="1" as="geometry">
            <mxPoint x="350" y="220" as="sourcePoint" />
            <mxPoint x="365" y="170" as="targetPoint" />
            <Array as="points">
              <mxPoint x="320" y="205" />
              <mxPoint x="320" y="175" />
            </Array>
          </mxGeometry>
        </mxCell>
        <mxCell id="w8WAmHKSt3YxrzcGMaqg-7" value="Se ingresa un digito [Digitos ingresados &amp;lt; 4] /&amp;nbsp;&lt;div&gt;Se espera el ingreso&amp;nbsp;&lt;span style=&quot;background-color: initial;&quot;&gt;del siguiente digito&lt;/span&gt;&lt;/div&gt;" style="text;html=1;align=right;verticalAlign=middle;resizable=0;points=[];autosize=1;strokeColor=none;fillColor=none;fontSize=9;" vertex="1" parent="1">
          <mxGeometry x="110" y="170" width="210" height="40" as="geometry" />
        </mxCell>
        <mxCell id="w8WAmHKSt3YxrzcGMaqg-18" value="" style="edgeStyle=orthogonalEdgeStyle;rounded=0;orthogonalLoop=1;jettySize=auto;html=1;entryX=0.5;entryY=0;entryDx=0;entryDy=0;exitX=0.5;exitY=1;exitDx=0;exitDy=0;" edge="1" parent="1" source="w8WAmHKSt3YxrzcGMaqg-8" target="w8WAmHKSt3YxrzcGMaqg-16">
          <mxGeometry relative="1" as="geometry">
            <mxPoint x="425" y="420" as="targetPoint" />
          </mxGeometry>
        </mxCell>
        <mxCell id="w8WAmHKSt3YxrzcGMaqg-8" value="Esperando seleccion de funcion" style="rounded=1;whiteSpace=wrap;html=1;" vertex="1" parent="1">
          <mxGeometry x="365" y="290" width="120" height="60" as="geometry" />
        </mxCell>
        <mxCell id="w8WAmHKSt3YxrzcGMaqg-10" value="Se presiona el boton &quot;aceptar&quot; [Digitos ingresados = 4 y&lt;div&gt;clave correcta] / Se muestran los botones &quot;extraccion de dinero&quot;&lt;/div&gt;&lt;div&gt;y &quot;consulta de saldo&quot;&lt;/div&gt;" style="text;html=1;align=left;verticalAlign=middle;resizable=0;points=[];autosize=1;strokeColor=none;fillColor=none;fontSize=9;" vertex="1" parent="1">
          <mxGeometry x="425" y="235" width="280" height="50" as="geometry" />
        </mxCell>
        <mxCell id="w8WAmHKSt3YxrzcGMaqg-12" value="" style="ellipse;whiteSpace=wrap;html=1;aspect=fixed;fillColor=#ffffff;" vertex="1" parent="1">
          <mxGeometry x="540" y="180" width="20" height="20" as="geometry" />
        </mxCell>
        <mxCell id="w8WAmHKSt3YxrzcGMaqg-11" value="" style="ellipse;whiteSpace=wrap;html=1;aspect=fixed;fillColor=#000000;" vertex="1" parent="1">
          <mxGeometry x="545" y="185" width="10" height="10" as="geometry" />
        </mxCell>
        <mxCell id="w8WAmHKSt3YxrzcGMaqg-15" value="Se presiona el boton &quot;aceptar&quot; [Digitos ingresados = 4 y&lt;div&gt;clave incorrecta] / Se muestra un mensaje de error,&amp;nbsp;&lt;/div&gt;&lt;div&gt;se emite un pitido y&lt;span style=&quot;background-color: initial;&quot;&gt;&amp;nbsp;se extrae la tarjeta&lt;/span&gt;&lt;/div&gt;" style="text;html=1;align=left;verticalAlign=middle;resizable=0;points=[];autosize=1;strokeColor=none;fillColor=none;fontSize=9;" vertex="1" parent="1">
          <mxGeometry x="570" y="165" width="250" height="50" as="geometry" />
        </mxCell>
        <mxCell id="w8WAmHKSt3YxrzcGMaqg-23" value="" style="edgeStyle=orthogonalEdgeStyle;rounded=0;orthogonalLoop=1;jettySize=auto;html=1;" edge="1" parent="1" source="w8WAmHKSt3YxrzcGMaqg-16" target="w8WAmHKSt3YxrzcGMaqg-22">
          <mxGeometry relative="1" as="geometry" />
        </mxCell>
        <mxCell id="w8WAmHKSt3YxrzcGMaqg-16" value="Esperando ingreso&lt;div&gt;de monto&lt;/div&gt;" style="rounded=1;whiteSpace=wrap;html=1;" vertex="1" parent="1">
          <mxGeometry x="200" y="400" width="120" height="60" as="geometry" />
        </mxCell>
        <mxCell id="w8WAmHKSt3YxrzcGMaqg-20" value="Se presiona el boton &quot;extraccion de dinero&quot; /&amp;nbsp;&lt;div&gt;se muestra un campo para ingresar el monto&lt;/div&gt;" style="text;html=1;align=right;verticalAlign=middle;resizable=0;points=[];autosize=1;strokeColor=none;fillColor=none;fontSize=9;" vertex="1" parent="1">
          <mxGeometry x="170" y="340" width="200" height="40" as="geometry" />
        </mxCell>
        <mxCell id="w8WAmHKSt3YxrzcGMaqg-22" value="Validando extraccion" style="rounded=1;whiteSpace=wrap;html=1;" vertex="1" parent="1">
          <mxGeometry x="200" y="520" width="120" height="60" as="geometry" />
        </mxCell>
        <mxCell id="w8WAmHKSt3YxrzcGMaqg-24" value="Se ingresa el monto a retirar y se presiona el&lt;div&gt;boton &quot;extraer&quot;&lt;/div&gt;" style="text;html=1;align=left;verticalAlign=middle;resizable=0;points=[];autosize=1;strokeColor=none;fillColor=none;fontSize=9;" vertex="1" parent="1">
          <mxGeometry x="260" y="470" width="200" height="40" as="geometry" />
        </mxCell>
        <mxCell id="w8WAmHKSt3YxrzcGMaqg-27" style="edgeStyle=orthogonalEdgeStyle;rounded=0;orthogonalLoop=1;jettySize=auto;html=1;exitX=0;exitY=0.25;exitDx=0;exitDy=0;entryX=-0.005;entryY=0.647;entryDx=0;entryDy=0;entryPerimeter=0;" edge="1" parent="1" source="w8WAmHKSt3YxrzcGMaqg-22" target="w8WAmHKSt3YxrzcGMaqg-8">
          <mxGeometry relative="1" as="geometry" />
        </mxCell>
        <mxCell id="w8WAmHKSt3YxrzcGMaqg-30" value="Se presiona el boton &quot;extraer&quot; [El monto ingresado&lt;div&gt;es mayor que la cantidad en la cuenta] / Se muestra&lt;/div&gt;&lt;div&gt;un mensaje de error &quot;Saldo insuficiente&lt;span style=&quot;background-color: initial;&quot;&gt;&quot;&lt;/span&gt;&lt;/div&gt;&lt;div&gt;&lt;span style=&quot;background-color: initial;&quot;&gt;&amp;nbsp;y se vuelve al menu&lt;/span&gt;&lt;/div&gt;" style="text;html=1;align=left;verticalAlign=middle;resizable=0;points=[];autosize=1;strokeColor=none;fillColor=none;fontSize=9;rotation=-90;" vertex="1" parent="1">
          <mxGeometry x="40" y="390" width="230" height="60" as="geometry" />
        </mxCell>
        <mxCell id="w8WAmHKSt3YxrzcGMaqg-31" value="Se presiona el boton &quot;extraer&quot; [El monto ingresado&lt;div&gt;es menor que la cantidad en la cuenta] / Se entrega el&amp;nbsp;&lt;/div&gt;&lt;div&gt;dinero, se imprime un comprobante y se vuelve al menu&lt;/div&gt;" style="text;html=1;align=left;verticalAlign=middle;resizable=0;points=[];autosize=1;strokeColor=none;fillColor=none;fontSize=9;rotation=-90;" vertex="1" parent="1">
          <mxGeometry x="-40" y="395" width="250" height="50" as="geometry" />
        </mxCell>
        <mxCell id="w8WAmHKSt3YxrzcGMaqg-32" value="" style="endArrow=classic;html=1;rounded=0;exitX=0;exitY=0.75;exitDx=0;exitDy=0;entryX=0;entryY=0.25;entryDx=0;entryDy=0;" edge="1" parent="1" source="w8WAmHKSt3YxrzcGMaqg-22" target="w8WAmHKSt3YxrzcGMaqg-8">
          <mxGeometry width="50" height="50" relative="1" as="geometry">
            <mxPoint x="170" y="450" as="sourcePoint" />
            <mxPoint x="220" y="400" as="targetPoint" />
            <Array as="points">
              <mxPoint x="110" y="565" />
              <mxPoint x="110" y="305" />
            </Array>
          </mxGeometry>
        </mxCell>
        <mxCell id="w8WAmHKSt3YxrzcGMaqg-40" style="edgeStyle=orthogonalEdgeStyle;rounded=0;orthogonalLoop=1;jettySize=auto;html=1;exitX=1;exitY=0.75;exitDx=0;exitDy=0;entryX=1;entryY=0.25;entryDx=0;entryDy=0;" edge="1" parent="1" source="w8WAmHKSt3YxrzcGMaqg-33" target="w8WAmHKSt3YxrzcGMaqg-8">
          <mxGeometry relative="1" as="geometry">
            <Array as="points">
              <mxPoint x="750" y="445" />
              <mxPoint x="750" y="305" />
            </Array>
          </mxGeometry>
        </mxCell>
        <mxCell id="w8WAmHKSt3YxrzcGMaqg-33" value="Esperando petición de impresion" style="rounded=1;whiteSpace=wrap;html=1;" vertex="1" parent="1">
          <mxGeometry x="555" y="400" width="120" height="60" as="geometry" />
        </mxCell>
        <mxCell id="w8WAmHKSt3YxrzcGMaqg-34" value="" style="edgeStyle=orthogonalEdgeStyle;rounded=0;orthogonalLoop=1;jettySize=auto;html=1;entryX=0.5;entryY=0;entryDx=0;entryDy=0;exitX=0.5;exitY=1;exitDx=0;exitDy=0;" edge="1" parent="1" source="w8WAmHKSt3YxrzcGMaqg-8" target="w8WAmHKSt3YxrzcGMaqg-33">
          <mxGeometry relative="1" as="geometry">
            <mxPoint x="525" y="420" as="sourcePoint" />
            <mxPoint x="360" y="470" as="targetPoint" />
          </mxGeometry>
        </mxCell>
        <mxCell id="w8WAmHKSt3YxrzcGMaqg-35" value="Se presiona el boton &quot;consulta de saldo&quot; /&amp;nbsp;&lt;div&gt;se muestra el numero de cuenta y su saldo, ademas&lt;/div&gt;&lt;div&gt;de un boton &quot;imprimir&quot; y &quot;volver al menu&quot;&lt;/div&gt;" style="text;html=1;align=right;verticalAlign=middle;resizable=0;points=[];autosize=1;strokeColor=none;fillColor=none;fontSize=9;" vertex="1" parent="1">
          <mxGeometry x="460" y="330" width="230" height="50" as="geometry" />
        </mxCell>
        <mxCell id="w8WAmHKSt3YxrzcGMaqg-36" value="Se presiona el boton &quot;extraer&quot; [El monto ingresado&lt;div&gt;es mayor que la cantidad en la cuenta] / Se muestra&lt;/div&gt;&lt;div&gt;un mensaje de error &quot;Saldo insuficiente&lt;span style=&quot;background-color: initial;&quot;&gt;&quot; y se vuelve al menu&lt;/span&gt;&lt;/div&gt;" style="text;html=1;align=left;verticalAlign=middle;resizable=0;points=[];autosize=1;strokeColor=none;fillColor=none;fontSize=9;rotation=-90;" vertex="1" parent="1">
          <mxGeometry x="-100" y="395" width="270" height="50" as="geometry" />
        </mxCell>
        <mxCell id="w8WAmHKSt3YxrzcGMaqg-37" value="" style="endArrow=classic;html=1;rounded=0;exitX=0;exitY=1;exitDx=0;exitDy=0;entryX=0;entryY=0;entryDx=0;entryDy=0;" edge="1" parent="1" source="w8WAmHKSt3YxrzcGMaqg-22" target="w8WAmHKSt3YxrzcGMaqg-8">
          <mxGeometry width="50" height="50" relative="1" as="geometry">
            <mxPoint x="260" y="480" as="sourcePoint" />
            <mxPoint x="310" y="430" as="targetPoint" />
            <Array as="points">
              <mxPoint x="60" y="580" />
              <mxPoint x="60" y="290" />
            </Array>
          </mxGeometry>
        </mxCell>
        <mxCell id="w8WAmHKSt3YxrzcGMaqg-38" value="" style="endArrow=classic;html=1;rounded=0;exitX=1;exitY=0.5;exitDx=0;exitDy=0;entryX=1;entryY=0.5;entryDx=0;entryDy=0;" edge="1" parent="1" source="w8WAmHKSt3YxrzcGMaqg-33" target="w8WAmHKSt3YxrzcGMaqg-8">
          <mxGeometry width="50" height="50" relative="1" as="geometry">
            <mxPoint x="710" y="320" as="sourcePoint" />
            <mxPoint x="760" y="270" as="targetPoint" />
            <Array as="points">
              <mxPoint x="710" y="430" />
              <mxPoint x="710" y="320" />
            </Array>
          </mxGeometry>
        </mxCell>
        <mxCell id="w8WAmHKSt3YxrzcGMaqg-39" value="Se presiona el boton&amp;nbsp;&lt;div&gt;&quot;Volver al menu&quot;&amp;nbsp;&lt;/div&gt;" style="text;html=1;align=right;verticalAlign=middle;resizable=0;points=[];autosize=1;strokeColor=none;fillColor=none;fontSize=9;rotation=-90;" vertex="1" parent="1">
          <mxGeometry x="675" y="360" width="110" height="40" as="geometry" />
        </mxCell>
        <mxCell id="w8WAmHKSt3YxrzcGMaqg-41" value="Se presiona el boton&amp;nbsp;&lt;div&gt;&quot;Imrprimir&quot; / Se imprime un&lt;/div&gt;&lt;div&gt;coprobante con los datos&lt;/div&gt;&lt;div&gt;y se vuelve al menu&amp;nbsp;&lt;/div&gt;" style="text;html=1;align=right;verticalAlign=middle;resizable=0;points=[];autosize=1;strokeColor=none;fillColor=none;fontSize=9;rotation=-90;" vertex="1" parent="1">
          <mxGeometry x="715" y="350" width="130" height="60" as="geometry" />
        </mxCell>
        <mxCell id="w8WAmHKSt3YxrzcGMaqg-45" value="" style="ellipse;whiteSpace=wrap;html=1;aspect=fixed;fillColor=#ffffff;" vertex="1" parent="1">
          <mxGeometry x="605" y="480" width="20" height="20" as="geometry" />
        </mxCell>
        <mxCell id="w8WAmHKSt3YxrzcGMaqg-46" value="" style="ellipse;whiteSpace=wrap;html=1;aspect=fixed;fillColor=#000000;" vertex="1" parent="1">
          <mxGeometry x="610" y="485" width="10" height="10" as="geometry" />
        </mxCell>
        <mxCell id="w8WAmHKSt3YxrzcGMaqg-47" value="Se presiona el boton &quot;Cancelar&quot; /&amp;nbsp;&lt;div&gt;Se aborta la operacion y se extrae la tarjeta&lt;/div&gt;" style="text;html=1;align=center;verticalAlign=middle;resizable=0;points=[];autosize=1;strokeColor=none;fillColor=none;fontSize=9;" vertex="1" parent="1">
          <mxGeometry x="515" y="495" width="200" height="40" as="geometry" />
        </mxCell>
        <mxCell id="w8WAmHKSt3YxrzcGMaqg-48" value="" style="endArrow=classic;html=1;rounded=0;exitX=0.5;exitY=1;exitDx=0;exitDy=0;entryX=0.5;entryY=0;entryDx=0;entryDy=0;" edge="1" parent="1" source="w8WAmHKSt3YxrzcGMaqg-33" target="w8WAmHKSt3YxrzcGMaqg-45">
          <mxGeometry width="50" height="50" relative="1" as="geometry">
            <mxPoint x="670" y="440" as="sourcePoint" />
            <mxPoint x="720" y="390" as="targetPoint" />
          </mxGeometry>
        </mxCell>
        <mxCell id="w8WAmHKSt3YxrzcGMaqg-50" value="" style="ellipse;whiteSpace=wrap;html=1;aspect=fixed;fillColor=#ffffff;" vertex="1" parent="1">
          <mxGeometry x="450" y="570" width="20" height="20" as="geometry" />
        </mxCell>
        <mxCell id="w8WAmHKSt3YxrzcGMaqg-51" value="" style="ellipse;whiteSpace=wrap;html=1;aspect=fixed;fillColor=#000000;" vertex="1" parent="1">
          <mxGeometry x="455" y="575" width="10" height="10" as="geometry" />
        </mxCell>
        <mxCell id="w8WAmHKSt3YxrzcGMaqg-52" value="Se presiona el boton &quot;Cancelar&quot; /&amp;nbsp;&lt;div&gt;Se aborta la operacion y se extrae la tarjeta&lt;/div&gt;" style="text;html=1;align=center;verticalAlign=middle;resizable=0;points=[];autosize=1;strokeColor=none;fillColor=none;fontSize=9;" vertex="1" parent="1">
          <mxGeometry x="360" y="585" width="200" height="40" as="geometry" />
        </mxCell>
        <mxCell id="w8WAmHKSt3YxrzcGMaqg-53" value="" style="endArrow=classic;html=1;rounded=0;exitX=1;exitY=0.5;exitDx=0;exitDy=0;entryX=0.5;entryY=0;entryDx=0;entryDy=0;" edge="1" parent="1" source="w8WAmHKSt3YxrzcGMaqg-16" target="w8WAmHKSt3YxrzcGMaqg-50">
          <mxGeometry width="50" height="50" relative="1" as="geometry">
            <mxPoint x="390" y="480" as="sourcePoint" />
            <mxPoint x="440" y="430" as="targetPoint" />
            <Array as="points">
              <mxPoint x="460" y="430" />
            </Array>
          </mxGeometry>
        </mxCell>
        <mxCell id="w8WAmHKSt3YxrzcGMaqg-54" value="" style="ellipse;whiteSpace=wrap;html=1;aspect=fixed;fillColor=#ffffff;" vertex="1" parent="1">
          <mxGeometry x="220" y="240" width="20" height="20" as="geometry" />
        </mxCell>
        <mxCell id="w8WAmHKSt3YxrzcGMaqg-55" value="" style="ellipse;whiteSpace=wrap;html=1;aspect=fixed;fillColor=#000000;" vertex="1" parent="1">
          <mxGeometry x="225" y="245" width="10" height="10" as="geometry" />
        </mxCell>
        <mxCell id="w8WAmHKSt3YxrzcGMaqg-56" value="Se presiona el boton &quot;Cancelar&quot; /&amp;nbsp;&lt;div&gt;Se aborta la operacion y se extrae la tarjeta&lt;/div&gt;" style="text;html=1;align=center;verticalAlign=middle;resizable=0;points=[];autosize=1;strokeColor=none;fillColor=none;fontSize=9;" vertex="1" parent="1">
          <mxGeometry x="30" y="230" width="200" height="40" as="geometry" />
        </mxCell>
        <mxCell id="w8WAmHKSt3YxrzcGMaqg-57" value="" style="endArrow=classic;html=1;rounded=0;exitX=0.25;exitY=0;exitDx=0;exitDy=0;entryX=1;entryY=0.5;entryDx=0;entryDy=0;" edge="1" parent="1" source="w8WAmHKSt3YxrzcGMaqg-8" target="w8WAmHKSt3YxrzcGMaqg-54">
          <mxGeometry width="50" height="50" relative="1" as="geometry">
            <mxPoint x="370" y="360" as="sourcePoint" />
            <mxPoint x="420" y="310" as="targetPoint" />
            <Array as="points">
              <mxPoint x="395" y="250" />
            </Array>
          </mxGeometry>
        </mxCell>
        <mxCell id="w8WAmHKSt3YxrzcGMaqg-60" value="" style="ellipse;whiteSpace=wrap;html=1;aspect=fixed;fillColor=#ffffff;" vertex="1" parent="1">
          <mxGeometry x="310" y="130" width="20" height="20" as="geometry" />
        </mxCell>
        <mxCell id="w8WAmHKSt3YxrzcGMaqg-61" value="" style="ellipse;whiteSpace=wrap;html=1;aspect=fixed;fillColor=#000000;" vertex="1" parent="1">
          <mxGeometry x="315" y="135" width="10" height="10" as="geometry" />
        </mxCell>
        <mxCell id="w8WAmHKSt3YxrzcGMaqg-62" value="Se presiona el boton &quot;Cancelar&quot; /&amp;nbsp;&lt;div&gt;Se aborta la operacion y se extrae la tarjeta&lt;/div&gt;" style="text;html=1;align=center;verticalAlign=middle;resizable=0;points=[];autosize=1;strokeColor=none;fillColor=none;fontSize=9;" vertex="1" parent="1">
          <mxGeometry x="120" y="120" width="200" height="40" as="geometry" />
        </mxCell>
        <mxCell id="w8WAmHKSt3YxrzcGMaqg-63" value="" style="endArrow=classic;html=1;rounded=0;entryX=1;entryY=0.5;entryDx=0;entryDy=0;" edge="1" parent="1" target="w8WAmHKSt3YxrzcGMaqg-60">
          <mxGeometry width="50" height="50" relative="1" as="geometry">
            <mxPoint x="380" y="160" as="sourcePoint" />
            <mxPoint x="360" y="220" as="targetPoint" />
          </mxGeometry>
        </mxCell>
      </root>
    </mxGraphModel>
  </diagram>
</mxfile>
